<svg width="100" height="102" viewBox="0 0 100 102" fill="none" xmlns="http://www.w3.org/2000/svg">
<path d="M48.1875 5.59246L8.18754 35.5929C7.44864 36.1532 6.99524 37.0719 7.00004 37.9992V91.9999C7.00024 93.5707 8.42924 94.9998 10 95H37C38.5708 94.9998 39.9998 93.5707 40 91.9999V77C40 71.408 44.4081 66.9998 50 66.9998C55.5919 66.9998 60 71.408 60 77V91.9999C60.0002 93.5707 61.4292 94.9998 63 95H90C91.5708 94.9998 92.9998 93.5707 93 91.9999V37.9992C93 37.0719 92.5514 36.1532 91.8125 35.5929L51.8125 5.59246C50.5026 4.76064 49.4104 4.84552 48.1875 5.59246ZM50 11.7488L87 39.4992V88.9999H66V77C66 68.1877 58.8121 60.9998 50 60.9998C41.1879 60.9998 34 68.1877 34 77V88.9999H13V39.4992L50 11.7488Z" fill="black"/>
</svg>
