<svg width="100" height="93" viewBox="0 0 100 93" fill="none" xmlns="http://www.w3.org/2000/svg">
<g clip-path="url(#clip0_127_2)">
<path fill-rule="evenodd" clip-rule="evenodd" d="M73.9353 59.0217L72.6163 56.5307H54.8863L61.0893 53.9417L60.2103 51.6467L54.2023 54.0887L61.6263 46.8117L59.8683 45.0047L52.4443 52.2817L54.9833 46.2257L52.6403 45.2487L50.0993 51.3047V40.8037H47.6083V51.9887L44.8733 45.1987L42.5783 46.3227L44.9713 52.1357L37.5953 44.8577L35.9343 46.8597L43.3103 54.0397L37.3023 51.5497L36.5213 53.9417L43.0173 56.5307H32.0273V59.0217H41.9913L36.4233 61.3667L37.4003 63.6137L43.4573 61.1717L36.1293 68.3517L37.8393 70.1097L45.4113 62.7337L42.8223 68.9857L45.1183 70.0127L47.6083 63.9557V74.3587H50.0993V64.4437L52.3953 70.0617L54.7393 69.0357L52.0543 62.6367L60.0153 70.4517L61.7243 68.5477L54.1043 61.1227L60.4053 63.6627L61.3333 61.3667L55.5693 59.0217H73.9353Z" fill="black"/>
<path d="M47.5693 10.5762C48.6494 8.70564 51.3494 8.70593 52.4297 10.5762L92.2852 79.6074C93.3649 81.4781 92.0145 83.8164 89.8545 83.8164H10.1455C7.98545 83.8164 6.63506 81.4781 7.71484 79.6074L47.5693 10.5762Z" stroke="black" stroke-width="3.36735"/>
</g>
<defs>
<clipPath id="clip0_127_2">
<rect width="100" height="93" fill="white"/>
</clipPath>
</defs>
</svg>
