<svg width="100" height="102" viewBox="0 0 100 102" fill="none" xmlns="http://www.w3.org/2000/svg">
<path d="M70.59 98C69.0563 98.0019 67.5822 97.4065 66.48 96.34L27 58.27C25.8863 57.1997 25.0003 55.9155 24.3951 54.4944C23.7898 53.0733 23.4778 51.5446 23.4778 50C23.4778 48.4554 23.7898 46.9267 24.3951 45.5056C25.0003 44.0845 25.8863 42.8003 27 41.73L66.48 3.66004C67.0315 3.08586 67.6931 2.62881 68.4253 2.31623C69.1574 2.00365 69.9452 1.84196 70.7413 1.84083C71.5374 1.8397 72.3255 1.99915 73.0586 2.30965C73.7917 2.62015 74.4546 3.07532 75.0077 3.64793C75.5608 4.22054 75.9927 4.89882 76.2776 5.6422C76.5625 6.38559 76.6945 7.1788 76.6658 7.9744C76.6371 8.76999 76.4482 9.55162 76.1104 10.2725C75.7727 10.9934 75.293 11.6388 74.7 12.17L35.48 50L74.7 87.83C75.5505 88.6479 76.1367 89.7015 76.3832 90.8554C76.6297 92.0093 76.5252 93.2105 76.0831 94.3045C75.641 95.3984 74.8816 96.335 73.9026 96.9936C72.9236 97.6522 71.7699 98.0028 70.59 98Z" fill="black"/>
</svg>
