<svg width="87" height="66" viewBox="0 0 87 66" fill="none" xmlns="http://www.w3.org/2000/svg">
<path d="M86.826 39.7561H67.33V20.4161H64.33V38.8941L26.843 17.2511C26.379 16.9821 25.807 16.9821 25.343 17.2511C24.879 17.5191 24.593 18.0141 24.593 18.5501V39.7131H0V42.7131H24.593V63.8751C24.593 64.4111 24.879 64.9061 25.343 65.1741C25.575 65.3081 25.834 65.3751 26.093 65.3751C26.352 65.3751 26.611 65.3081 26.843 65.1741L64.33 43.5301V62.0081H67.33V42.7561H86.826V39.7561ZM27.593 61.2761V21.1471L62.345 41.2121L27.593 61.2761Z" fill="black"/>
<path d="M49.7256 24.5147L53.9186 27.1007C54.1566 27.2477 54.4296 27.3237 54.7056 27.3237C54.8216 27.3237 54.9376 27.3107 55.0526 27.2827C55.4406 27.1907 55.7746 26.9487 55.9836 26.6097L59.7116 20.5497L60.8926 21.2787C61.3486 21.5607 61.9216 21.5767 62.3926 21.3217C62.8646 21.0667 63.1646 20.5787 63.1796 20.0427L63.4676 9.48774C63.4826 8.95174 63.2096 8.44874 62.7536 8.16874C62.2966 7.88674 61.7246 7.87174 61.2536 8.12674L51.9766 13.1617C51.5066 13.4177 51.2086 13.9037 51.1936 14.4387C51.1786 14.9737 51.4496 15.4757 51.9056 15.7557L52.9526 16.4017L49.2336 22.4507C48.8006 23.1567 49.0206 24.0797 49.7256 24.5147ZM56.2926 16.6977C56.7256 15.9927 56.5066 15.0707 55.8026 14.6357L55.6826 14.5607L60.3976 12.0017L60.2516 17.3567L60.0086 17.2067C59.6696 16.9977 59.2626 16.9327 58.8746 17.0237C58.4876 17.1157 58.1526 17.3577 57.9436 17.6967L54.2156 23.7567L52.5756 22.7447L56.2926 16.6977Z" fill="black"/>
<path d="M34.7139 16.5689L38.9079 19.1539C39.1469 19.3009 39.4189 19.3769 39.6949 19.3769C39.8109 19.3769 39.9269 19.3629 40.0419 19.3359C40.4289 19.2439 40.7639 19.0019 40.9719 18.6629L44.6999 12.6039L45.8809 13.3329C46.3389 13.6139 46.9099 13.6299 47.3809 13.3759C47.8529 13.1209 48.1529 12.6329 48.1679 12.0969L48.4569 1.54194C48.4719 1.00594 48.1989 0.502942 47.7429 0.222942C47.2859 -0.059058 46.7139 -0.0740578 46.2429 0.180942L36.9649 5.21594C36.4949 5.47194 36.1969 5.95794 36.1819 6.49294C36.1669 7.02794 36.4389 7.52994 36.8939 7.81094L37.9409 8.45694L34.2219 14.5069C33.7889 15.2119 34.0089 16.1349 34.7139 16.5689ZM41.2819 8.75194C41.7159 8.04694 41.4959 7.12394 40.7919 6.68894L40.6729 6.61594L45.3879 4.05694L45.2419 9.41194L44.9989 9.26194C44.6599 9.05394 44.2519 8.98794 43.8649 9.07894C43.4779 9.17094 43.1429 9.41294 42.9339 9.75194L39.2059 15.8119L37.5649 14.8009L41.2819 8.75194Z" fill="black"/>
</svg>
