<svg width="100" height="102" viewBox="0 0 100 102" fill="none" xmlns="http://www.w3.org/2000/svg">
<path d="M29.41 98.9802C30.9437 98.9821 32.4178 98.3807 33.52 97.3036L73 58.8529C74.1137 57.7719 74.9997 56.4748 75.6049 55.0395C76.2102 53.6042 76.5222 52.0602 76.5222 50.5002C76.5222 48.9401 76.2102 47.3961 75.6049 45.9608C74.9997 44.5255 74.1137 43.2285 73 42.1475L33.52 3.69679C32.9685 3.11687 32.3069 2.65525 31.5747 2.33954C30.8426 2.02383 30.0548 1.86052 29.2587 1.85938C28.4626 1.85824 27.6745 2.01929 26.9414 2.33289C26.2083 2.6465 25.5454 3.10622 24.9923 3.68455C24.4392 4.26289 24.0073 4.94795 23.7224 5.69877C23.4375 6.44959 23.3055 7.25074 23.3342 8.05429C23.3629 8.85784 23.5518 9.64728 23.8896 10.3754C24.2273 11.1035 24.707 11.7553 25.3 12.2919L64.52 50.5002L25.3 88.7085C24.4495 89.5345 23.8633 90.5987 23.6168 91.7641C23.3703 92.9295 23.4748 94.1428 23.9169 95.2477C24.359 96.3525 25.1184 97.2985 26.0974 97.9637C27.0764 98.6289 28.2301 98.9829 29.41 98.9802Z" fill="black"/>
</svg>
