<svg width="32" height="77" viewBox="0 0 32 77" fill="none" xmlns="http://www.w3.org/2000/svg">
<path d="M16.4795 0.0315455C15.4799 -0.0627398 14.4717 0.0549012 13.5207 0.376785C12.5697 0.698668 11.6973 1.21755 10.9605 1.89955C10.2238 2.57638 9.63545 3.39858 9.23253 4.31424C8.8296 5.2299 8.62086 6.21915 8.61949 7.21954V46.5865C5.97359 47.9447 3.76277 50.0193 2.23931 52.5736C0.715849 55.1279 -0.0588931 58.0591 0.00349135 61.0325C0.145903 65.0377 1.78151 68.8448 4.58873 71.7051C7.39595 74.5654 11.1717 76.2721 15.1735 76.4895C15.3975 76.4995 15.6195 76.5035 15.8425 76.5035C20.0412 76.5017 24.0674 74.8324 27.0357 71.8628C30.004 68.8932 31.6715 64.8663 31.6715 60.6675C31.6598 57.7566 30.85 54.9046 29.3302 52.4219C27.8103 49.9391 25.6387 47.9208 23.0515 46.5865V7.55355C23.0833 5.70816 22.4285 3.91676 21.2141 2.52687C19.9998 1.13697 18.3124 0.247693 16.4795 0.0315455ZM30.1715 60.6675C30.1714 62.6007 29.7804 64.5139 29.022 66.292C28.2635 68.0702 27.1533 69.6766 25.7581 71.0146C24.3628 72.3527 22.7114 73.3948 20.9031 74.0782C19.0948 74.7616 17.167 75.0723 15.2355 74.9915C11.6133 74.7943 8.19588 73.2492 5.65516 70.66C3.11443 68.0708 1.6342 64.6248 1.50549 60.9995C1.44734 58.234 2.18911 55.5106 3.64164 53.1565C5.09417 50.8024 7.19566 48.9179 9.69349 47.7295C9.8216 47.6688 9.92982 47.5729 10.0056 47.4531C10.0814 47.3332 10.1215 47.1943 10.1215 47.0525V7.21954C10.1224 6.42704 10.2877 5.64334 10.607 4.918C10.9263 4.19265 11.3926 3.54145 11.9765 3.00555C13.026 2.03606 14.4038 1.50011 15.8325 1.50555C16.0045 1.50555 16.1785 1.51355 16.3525 1.52755C17.8122 1.70954 19.1524 2.42705 20.1131 3.54099C21.0739 4.65492 21.5868 6.08592 21.5525 7.55655V47.0535C21.5524 47.1953 21.5926 47.3342 21.6684 47.4541C21.7442 47.5739 21.8524 47.6698 21.9805 47.7305C24.4238 48.899 26.4882 50.7326 27.937 53.0208C29.3857 55.309 30.1602 57.9593 30.1715 60.6675Z" fill="black"/>
<path d="M16.5851 53.5404V12.4404C16.5851 12.2415 16.5061 12.0508 16.3655 11.9101C16.2248 11.7694 16.0341 11.6904 15.8351 11.6904C15.6362 11.6904 15.4455 11.7694 15.3048 11.9101C15.1642 12.0508 15.0851 12.2415 15.0851 12.4404V53.5404C13.2464 53.7326 11.5515 54.6232 10.3502 56.0285C9.14883 57.4338 8.53272 59.2466 8.62893 61.0929C8.72513 62.9391 9.52632 64.6781 10.8672 65.9509C12.2081 67.2237 13.9864 67.9333 15.8351 67.9333C17.6839 67.9333 19.4622 67.2237 20.8031 65.9509C22.144 64.6781 22.9452 62.9391 23.0414 61.0929C23.1376 59.2466 22.5215 57.4338 21.3201 56.0285C20.1188 54.6232 18.4239 53.7326 16.5851 53.5404ZM15.8351 66.4324C14.7046 66.4324 13.5994 66.0972 12.6594 65.469C11.7194 64.8409 10.9868 63.9481 10.5542 62.9036C10.1216 61.8591 10.0084 60.7097 10.2291 59.6009C10.4497 58.4921 10.9942 57.4736 11.7937 56.6743C12.5932 55.8749 13.6118 55.3306 14.7206 55.1101C15.8295 54.8897 16.9788 55.003 18.0233 55.4358C19.0677 55.8686 19.9604 56.6014 20.5883 57.5415C21.2163 58.4816 21.5513 59.5869 21.5511 60.7174C21.549 62.2327 20.9461 63.6852 19.8746 64.7566C18.803 65.8279 17.3504 66.4306 15.8351 66.4324Z" fill="black"/>
<path d="M26.7695 11.9814H28.4585C28.6574 11.9814 28.8482 11.9024 28.9889 11.7618C29.1295 11.6211 29.2085 11.4304 29.2085 11.2314C29.2085 11.0325 29.1295 10.8418 28.9889 10.7011C28.8482 10.5605 28.6574 10.4814 28.4585 10.4814H26.7695C26.5706 10.4814 26.3799 10.5605 26.2392 10.7011C26.0986 10.8418 26.0195 11.0325 26.0195 11.2314C26.0195 11.4304 26.0986 11.6211 26.2392 11.7618C26.3799 11.9024 26.5706 11.9814 26.7695 11.9814Z" fill="black"/>
<path d="M26.7695 21.0713H29.9225C30.1214 21.0713 30.3122 20.9923 30.4529 20.8516C30.5935 20.711 30.6725 20.5202 30.6725 20.3213C30.6725 20.1224 30.5935 19.9316 30.4529 19.791C30.3122 19.6503 30.1214 19.5713 29.9225 19.5713H26.7695C26.5706 19.5713 26.3799 19.6503 26.2392 19.791C26.0986 19.9316 26.0195 20.1224 26.0195 20.3213C26.0195 20.5202 26.0986 20.711 26.2392 20.8516C26.3799 20.9923 26.5706 21.0713 26.7695 21.0713Z" fill="black"/>
<path d="M26.7695 30.1626H28.4585C28.6574 30.1626 28.8482 30.0836 28.9889 29.9429C29.1295 29.8023 29.2085 29.6115 29.2085 29.4126C29.2085 29.2137 29.1295 29.0229 28.9889 28.8823C28.8482 28.7416 28.6574 28.6626 28.4585 28.6626H26.7695C26.5706 28.6626 26.3799 28.7416 26.2392 28.8823C26.0986 29.0229 26.0195 29.2137 26.0195 29.4126C26.0195 29.6115 26.0986 29.8023 26.2392 29.9429C26.3799 30.0836 26.5706 30.1626 26.7695 30.1626Z" fill="black"/>
<path d="M26.7695 39.2534H29.9225C30.1214 39.2534 30.3122 39.1744 30.4529 39.0337C30.5935 38.8931 30.6725 38.7023 30.6725 38.5034C30.6725 38.3045 30.5935 38.1137 30.4529 37.9731C30.3122 37.8324 30.1214 37.7534 29.9225 37.7534H26.7695C26.5706 37.7534 26.3799 37.8324 26.2392 37.9731C26.0986 38.1137 26.0195 38.3045 26.0195 38.5034C26.0195 38.7023 26.0986 38.8931 26.2392 39.0337C26.3799 39.1744 26.5706 39.2534 26.7695 39.2534Z" fill="black"/>
</svg>
