<svg width="102" height="102" viewBox="0 0 102 102" fill="none" xmlns="http://www.w3.org/2000/svg">
<path d="M50.6426 8.27246C49.0866 8.26654 47.5854 8.8504 46.4424 9.90625L46.4414 9.90723C45.8048 10.4915 45.2964 11.2023 44.9482 11.9932C44.6002 12.7838 44.42 13.6381 44.4189 14.502V61.4082C44.4189 61.6695 44.345 61.9261 44.2051 62.1475C44.0654 62.3682 43.8653 62.5442 43.6289 62.6562C40.7747 64.0143 38.3737 66.1684 36.7139 68.8584C35.0552 71.5466 34.2074 74.6565 34.2725 77.8145L34.291 78.2021C34.5268 82.2038 36.2029 85.99 39.0166 88.8574C41.921 91.8172 45.8272 93.584 49.9678 93.8096H49.9668C52.1723 93.9012 54.3736 93.546 56.4385 92.7656C58.5048 91.9847 60.3919 90.7937 61.9863 89.2646C63.5806 87.7357 64.8491 85.9001 65.7158 83.8682C66.5821 81.8371 67.0289 79.6516 67.0293 77.4434L67.0166 76.8633C66.9026 73.9708 66.0277 71.1557 64.4756 68.7041C62.8198 66.089 60.4604 63.9927 57.668 62.6572V62.6562C57.4916 62.5723 57.3356 62.4531 57.21 62.3057L57.0938 62.1484C56.954 61.9273 56.8797 61.6709 56.8799 61.4092V14.5859C56.8453 13.0847 56.2915 11.6379 55.3066 10.4961C54.2575 9.27963 52.794 8.49603 51.2002 8.2959C51.0122 8.28113 50.8264 8.27247 50.6445 8.27246H50.6426ZM69.7959 77.4414C69.7958 82.5182 67.7794 87.3869 64.1904 90.9775C60.6013 94.5682 55.7331 96.5866 50.6562 96.5889C50.3877 96.5889 50.1182 96.5844 49.8457 96.5723H49.8408C45.0038 96.3095 40.44 94.2463 37.0469 90.7891C33.6537 87.3317 31.677 82.7298 31.5049 77.8887L31.5039 77.8809C31.4286 74.2859 32.3661 70.7416 34.208 67.6533C35.9974 64.6533 38.5721 62.2026 41.6504 60.5596V14.501C41.6521 13.2538 41.9118 12.0204 42.4141 10.8789C42.9163 9.73754 43.6501 8.71286 44.5684 7.86914C45.4874 7.01871 46.5757 6.37117 47.7617 5.96973C48.7999 5.61837 49.8929 5.46253 50.9854 5.50781L51.4531 5.53906L51.4648 5.54004V5.54102C53.746 5.81012 55.846 6.91668 57.3574 8.64648C58.8671 10.3743 59.6818 12.6007 59.6445 14.8945L59.6455 60.5605C62.6534 62.1732 65.1809 64.5558 66.9648 67.4697C68.8023 70.4713 69.7818 73.9202 69.7959 77.4395V77.4414Z" fill="black" stroke="black"/>
<path d="M50.647 19.7666C50.8813 19.7666 51.1063 19.8597 51.272 20.0254C51.4374 20.191 51.5307 20.4154 51.5308 20.6494V69.0488C53.6959 69.2752 55.6914 70.3238 57.106 71.9785C58.5207 73.6334 59.2466 75.7682 59.1333 77.9424C59.02 80.1163 58.0765 82.1643 56.4976 83.6631C54.9186 85.1618 52.824 85.9971 50.647 85.9971C48.4702 85.997 46.3763 85.1617 44.7974 83.6631C43.2184 82.1643 42.275 80.1163 42.1616 77.9424C42.0483 75.7683 42.7734 73.6333 44.188 71.9785C45.6026 70.3237 47.5989 69.2752 49.7642 69.0488V20.6494C49.7643 20.4153 49.8575 20.191 50.0229 20.0254C50.1886 19.8598 50.4129 19.7667 50.647 19.7666ZM53.2241 71.2803C51.9941 70.7706 50.6403 70.6369 49.3345 70.8965C48.0289 71.1562 46.8296 71.798 45.8882 72.7393C44.9468 73.6805 44.3052 74.8799 44.0454 76.1855C43.7857 77.491 43.9189 78.8444 44.4282 80.0742C44.9376 81.3042 45.8008 82.3561 46.9077 83.0957C48.0145 83.8353 49.3159 84.2294 50.647 84.2295C52.4312 84.2274 54.1419 83.5182 55.4038 82.2568C56.6656 80.9952 57.3759 79.2844 57.3784 77.5C57.3787 76.1687 56.9842 74.8668 56.2446 73.7598C55.5052 72.6528 54.4539 71.7899 53.2241 71.2803Z" fill="black"/>
<path d="M50.647 19.7666C50.8813 19.7666 51.1063 19.8597 51.272 20.0254C51.4374 20.191 51.5307 20.4154 51.5308 20.6494V69.0488C53.6959 69.2752 55.6914 70.3238 57.106 71.9785C58.5207 73.6334 59.2466 75.7682 59.1333 77.9424C59.02 80.1163 58.0765 82.1643 56.4976 83.6631C54.9186 85.1618 52.824 85.9971 50.647 85.9971C48.4702 85.997 46.3763 85.1617 44.7974 83.6631C43.2184 82.1643 42.275 80.1163 42.1616 77.9424C42.0483 75.7683 42.7734 73.6333 44.188 71.9785C45.6026 70.3237 47.5989 69.2752 49.7642 69.0488V20.6494C49.7643 20.4153 49.8575 20.191 50.0229 20.0254C50.1886 19.8598 50.4129 19.7667 50.647 19.7666ZM53.2241 71.2803C51.9941 70.7706 50.6403 70.6369 49.3345 70.8965C48.0289 71.1562 46.8296 71.798 45.8882 72.7393C44.9468 73.6805 44.3052 74.8799 44.0454 76.1855C43.7857 77.491 43.9189 78.8444 44.4282 80.0742C44.9376 81.3042 45.8008 82.3561 46.9077 83.0957C48.0145 83.8353 49.3159 84.2294 50.647 84.2295C52.4312 84.2274 54.1419 83.5182 55.4038 82.2568C56.6656 80.9952 57.3759 79.2844 57.3784 77.5C57.3787 76.1687 56.9842 74.8668 56.2446 73.7598C55.5052 72.6528 54.4539 71.7899 53.2241 71.2803Z" stroke="black"/>
<path d="M65.5117 17.8438L65.6484 17.8506C65.9201 17.8776 66.1777 17.9843 66.3887 18.1572L66.4902 18.249L66.582 18.3506C66.7834 18.5966 66.8944 18.9058 66.8945 19.2266C66.8945 19.5476 66.7835 19.8574 66.582 20.1035L66.4902 20.2051C66.2308 20.4643 65.8785 20.6104 65.5117 20.6104H63.5225C63.2016 20.6103 62.8925 20.4983 62.6465 20.2969L62.5449 20.2051C62.2858 19.9458 62.1396 19.5937 62.1396 19.2266C62.1397 18.8597 62.2859 18.5082 62.5449 18.249L62.6465 18.1572C62.8924 17.9558 63.2014 17.8438 63.5225 17.8438H65.5117Z" fill="black" stroke="black"/>
<path d="M67.2354 28.5479C67.6022 28.5479 67.9544 28.6937 68.2139 28.9531C68.4731 29.2124 68.619 29.5641 68.6191 29.9307C68.6191 30.2974 68.4733 30.6498 68.2139 30.9092C67.9544 31.1686 67.6021 31.3145 67.2354 31.3145H63.5225C63.1558 31.3144 62.8042 31.1684 62.5449 30.9092C62.2857 30.6499 62.1396 30.2976 62.1396 29.9307C62.1397 29.5639 62.2857 29.2123 62.5449 28.9531C62.8043 28.6938 63.1557 28.548 63.5225 28.5479H67.2354Z" fill="black" stroke="black"/>
<path d="M65.5117 39.2539L65.6484 39.2607C65.9651 39.2922 66.2632 39.4321 66.4902 39.6592C66.7494 39.9185 66.8944 40.2702 66.8945 40.6367C66.8945 41.0034 66.7496 41.3559 66.4902 41.6152C66.2308 41.8747 65.8785 42.0205 65.5117 42.0205H63.5225C63.1558 42.0204 62.8042 41.8745 62.5449 41.6152C62.2857 41.356 62.1396 41.0036 62.1396 40.6367C62.1397 40.2699 62.2857 39.9184 62.5449 39.6592C62.8043 39.3998 63.1557 39.254 63.5225 39.2539H65.5117Z" fill="black" stroke="black"/>
<path d="M67.2354 49.958C67.6022 49.958 67.9544 50.1038 68.2139 50.3633C68.4731 50.6226 68.619 50.9742 68.6191 51.3408C68.6191 51.7076 68.4733 52.0599 68.2139 52.3193C67.9544 52.5788 67.6021 52.7246 67.2354 52.7246H63.5225C63.1558 52.7245 62.8042 52.5786 62.5449 52.3193C62.2857 52.0601 62.1396 51.7077 62.1396 51.3408C62.1397 50.974 62.2857 50.6225 62.5449 50.3633C62.8043 50.1039 63.1557 49.9581 63.5225 49.958H67.2354Z" fill="black" stroke="black"/>
</svg>
